# xmcd
#
# Track frame offsets: 
#        150
#        13919
#        27486
#        40323
#        50870
#        61175
#        71551
#        82227
#        96749
#        107065
#        117805
#        128806
#        140871
#        153858
#        164147
#        178086
#
# Disc length: 2547 seconds
#
# Revision: 0
# Processed by: cddbd v1.5.2PL0 Copyright (c) Steve Scherf et al.
# Submitted via: ExactAudioCopy v1.1
#
DISCID=f509f110
DTITLE=B.B.King - B.B.King - Milestones of a Blues Legend cd 10 - Twis
DTITLE=t with B.B.King (1962)
DYEAR=1962
DGENRE=Blues
TTITLE0=You Upset Me Baby
TTITLE1=Woke Up This Morning
TTITLE2=Please Love Me
TTITLE3=Bad Case of Love
TTITLE4=Groovin’ Twist
TTITLE5=Bad Luck Soul
TTITLE6=Do What I Say
TTITLE7=Rockin’ Twist
TTITLE8=Come by Here
TTITLE9=Oh Baby
TTITLE10=Days Of Old (Bonus Track)
TTITLE11=You’ve Been an Angel (Bonus Track)
TTITLE12=Someday Somewhere (Bonus Track)
TTITLE13=Peace of Mind (Bonus Track)
TTITLE14=My Sometime Baby (Bonus Track)
TTITLE15=Gonna Miss You around Here (Bonus Track)
EXTD=
EXTT0=
EXTT1=
EXTT2=
EXTT3=
EXTT4=
EXTT5=
EXTT6=
EXTT7=
EXTT8=
EXTT9=
EXTT10=
EXTT11=
EXTT12=
EXTT13=
EXTT14=
EXTT15=
PLAYORDER=
